<svg xmlns="http://www.w3.org/2000/svg" viewBox="0 0 1180 860" font-family="Segoe UI,Arial"><defs>
<filter id="sh" x="-6%" y="-6%" width="115%" height="122%"><feDropShadow dx="0" dy="2" stdDeviation="2.4" flood-color="#000" flood-opacity="0.16"/></filter>
<marker id="arr" markerWidth="10" markerHeight="10" refX="8" refY="5" orient="auto"><path d="M0 0 L9 5 L0 10 z" fill="#5b6b7b"/></marker>
<marker id="arrb" markerWidth="10" markerHeight="10" refX="8" refY="5" orient="auto"><path d="M0 0 L9 5 L0 10 z" fill="#1F4E79"/></marker>
</defs><rect width="1180" height="860" fill="#F7F9FC"/><text x="590.0" y="34" text-anchor="middle" font-size="19" font-weight="700" fill="#1F4E79">Figura 5. Diagrama de casos de uso por rol</text><rect x="330" y="70" width="560" height="740" rx="12" fill="#f4f8fc" stroke="#9db4cc" stroke-width="1.6"/><text x="610" y="96" text-anchor="middle" font-family="Segoe UI,Arial" font-size="13.0" font-weight="700" fill="#1F4E79">SIGEC-PJ</text><g stroke="#1F4E79" stroke-width="2" fill="none"><circle cx="120" cy="160" r="14"/><line x1="120" y1="174" x2="120" y2="210"/><line x1="98" y1="186" x2="142" y2="186"/><line x1="120" y1="210" x2="102" y2="240"/><line x1="120" y1="210" x2="138" y2="240"/></g><text x="120" y="260" text-anchor="middle" font-family="Segoe UI,Arial" font-size="13.0" font-weight="700" fill="#1F4E79">CONSULTA</text><g stroke="#1F4E79" stroke-width="2" fill="none"><circle cx="120" cy="420" r="14"/><line x1="120" y1="434" x2="120" y2="470"/><line x1="98" y1="446" x2="142" y2="446"/><line x1="120" y1="470" x2="102" y2="500"/><line x1="120" y1="470" x2="138" y2="500"/></g><text x="120" y="520" text-anchor="middle" font-family="Segoe UI,Arial" font-size="13.0" font-weight="700" fill="#1F4E79">TECNICO</text><g stroke="#1F4E79" stroke-width="2" fill="none"><circle cx="120" cy="680" r="14"/><line x1="120" y1="694" x2="120" y2="730"/><line x1="98" y1="706" x2="142" y2="706"/><line x1="120" y1="730" x2="102" y2="760"/><line x1="120" y1="730" x2="138" y2="760"/></g><text x="120" y="780" text-anchor="middle" font-family="Segoe UI,Arial" font-size="13.0" font-weight="700" fill="#1F4E79">ADMIN</text><g filter="url(#sh)"><ellipse cx="610" cy="150" rx="105.0" ry="26" fill="#fff" stroke="#2E75B6" stroke-width="1.6"/></g><text x="610" y="154" text-anchor="middle" font-family="Segoe UI,Arial" font-size="11.5" font-weight="400" fill="#234">Consultar inventario y dashboard</text><g filter="url(#sh)"><ellipse cx="610" cy="215" rx="105.0" ry="26" fill="#fff" stroke="#2E75B6" stroke-width="1.6"/></g><text x="610" y="219" text-anchor="middle" font-family="Segoe UI,Arial" font-size="11.5" font-weight="400" fill="#234">Ver garantias por vencer</text><g filter="url(#sh)"><ellipse cx="610" cy="300" rx="105.0" ry="26" fill="#fff" stroke="#2E75B6" stroke-width="1.6"/></g><text x="610" y="304" text-anchor="middle" font-family="Segoe UI,Arial" font-size="11.5" font-weight="400" fill="#234">Registrar / editar equipo</text><g filter="url(#sh)"><ellipse cx="610" cy="365" rx="105.0" ry="26" fill="#fff" stroke="#2E75B6" stroke-width="1.6"/></g><text x="610" y="369" text-anchor="middle" font-family="Segoe UI,Arial" font-size="11.5" font-weight="400" fill="#234">Registrar incidente (ITIL)</text><g filter="url(#sh)"><ellipse cx="610" cy="430" rx="105.0" ry="26" fill="#fff" stroke="#2E75B6" stroke-width="1.6"/></g><text x="610" y="434" text-anchor="middle" font-family="Segoe UI,Arial" font-size="11.5" font-weight="400" fill="#234">Registrar movimiento (baja/reemplazo)</text><g filter="url(#sh)"><ellipse cx="610" cy="495" rx="105.0" ry="26" fill="#fff" stroke="#2E75B6" stroke-width="1.6"/></g><text x="610" y="499" text-anchor="middle" font-family="Segoe UI,Arial" font-size="11.5" font-weight="400" fill="#234">Registrar credencial (cifrada)</text><g filter="url(#sh)"><ellipse cx="610" cy="585" rx="115.0" ry="26" fill="#fff" stroke="#C00000" stroke-width="1.6"/></g><text x="610" y="589" text-anchor="middle" font-family="Segoe UI,Arial" font-size="11.5" font-weight="400" fill="#234">Revelar credencial (descifrar)</text><g filter="url(#sh)"><ellipse cx="610" cy="655" rx="105.0" ry="26" fill="#fff" stroke="#2E75B6" stroke-width="1.6"/></g><text x="610" y="659" text-anchor="middle" font-family="Segoe UI,Arial" font-size="11.5" font-weight="400" fill="#234">Gestionar usuarios</text><g filter="url(#sh)"><ellipse cx="610" cy="720" rx="105.0" ry="26" fill="#fff" stroke="#2E75B6" stroke-width="1.6"/></g><text x="610" y="724" text-anchor="middle" font-family="Segoe UI,Arial" font-size="11.5" font-weight="400" fill="#234">Autenticarse (login JWT)</text><line x1="150" y1="180" x2="505" y2="150" stroke="#9aa7b4" stroke-width="1.3"/><line x1="150" y1="180" x2="505" y2="215" stroke="#9aa7b4" stroke-width="1.3"/><line x1="150" y1="180" x2="505" y2="720" stroke="#9aa7b4" stroke-width="1.3"/><line x1="150" y1="440" x2="505" y2="300" stroke="#9aa7b4" stroke-width="1.3"/><line x1="150" y1="440" x2="505" y2="365" stroke="#9aa7b4" stroke-width="1.3"/><line x1="150" y1="440" x2="505" y2="430" stroke="#9aa7b4" stroke-width="1.3"/><line x1="150" y1="440" x2="505" y2="495" stroke="#9aa7b4" stroke-width="1.3"/><line x1="150" y1="440" x2="505" y2="720" stroke="#9aa7b4" stroke-width="1.3"/><line x1="150" y1="700" x2="505" y2="300" stroke="#9aa7b4" stroke-width="1.3"/><line x1="150" y1="700" x2="505" y2="585" stroke="#9aa7b4" stroke-width="1.3"/><line x1="150" y1="700" x2="505" y2="655" stroke="#9aa7b4" stroke-width="1.3"/><line x1="150" y1="700" x2="505" y2="720" stroke="#9aa7b4" stroke-width="1.3"/><line x1="150" y1="700" x2="505" y2="495" stroke="#9aa7b4" stroke-width="1.3"/><text x="610" y="780" text-anchor="middle" font-family="Segoe UI,Arial" font-size="10.5" font-weight="400" fill="#666">ADMIN incluye permisos de TECNICO y CONSULTA; solo ADMIN descifra credenciales.</text></svg>